<svg xmlns="http://www.w3.org/2000/svg" xmlns:xlink="http://www.w3.org/1999/xlink" x="0px" y="0px"
	 viewBox="0 0 200 58">
<path d="M6.9,13.6c-1.6-0.3-2.5-0.6-2.5-1.3c0-0.6,0.5-1.1,1.7-1.1c1.3,0,2.9,0.5,4.1,1.5l2.1-2.7c-1.6-1.4-3.6-2.1-6-2.1
	c-3.8,0-5.9,2.1-5.9,4.6c0,3.5,3.4,4.1,5.8,4.6c1.6,0.3,2.5,0.7,2.5,1.5c0,0.7-0.8,1.3-2.1,1.3c-2,0-3.6-0.9-4.7-1.9l-2,2.8
	C1.5,22.1,3.5,23,6.5,23c4,0,6.1-2,6.1-4.9C12.7,14.8,9.3,14.1,6.9,13.6z"/>
<path d="M25.3,19.7c-2.3,0-4-1.9-4-4.3c0-2.4,1.7-4.3,4-4.3c1.5,0,2.8,1,3.3,2.1l3.3-1.5c-1-1.9-2.9-3.9-6.5-3.9
	c-4.4,0-7.8,3.1-7.8,7.6c0,4.5,3.4,7.6,7.8,7.6c3.7,0,5.6-2.1,6.5-4l-3.3-1.5C28,18.7,26.8,19.7,25.3,19.7z"/>
<path d="M37.2,8.1v14.7H41V8.1H37.2z"/>
<path d="M53.2,13.6c-1.6-0.3-2.5-0.6-2.5-1.3c0-0.6,0.5-1.1,1.7-1.1c1.3,0,2.9,0.5,4.1,1.5l2.1-2.7c-1.6-1.4-3.6-2.1-6-2.1
	c-3.8,0-5.9,2.1-5.9,4.6c0,3.5,3.4,4.1,5.8,4.6c1.6,0.3,2.5,0.7,2.5,1.5c0,0.7-0.8,1.3-2.1,1.3c-2,0-3.6-0.9-4.7-1.9l-2,2.8
	c1.5,1.4,3.5,2.3,6.5,2.3c4,0,6.1-2,6.1-4.9C59,14.8,55.6,14.1,53.2,13.6z"/>
<path d="M70.3,13.6c-1.6-0.3-2.5-0.6-2.5-1.3c0-0.6,0.5-1.1,1.7-1.1c1.3,0,2.9,0.5,4.1,1.5l2.1-2.7c-1.6-1.4-3.6-2.1-6-2.1
	c-3.8,0-5.9,2.1-5.9,4.6c0,3.5,3.4,4.1,5.8,4.6c1.6,0.3,2.5,0.7,2.5,1.5c0,0.7-0.8,1.3-2.1,1.3c-2,0-3.6-0.9-4.7-1.9l-2,2.8
	C64.9,22.1,67,23,70,23c3.9,0,6.1-2,6.1-4.9C76.1,14.8,72.7,14.1,70.3,13.6z"/>
<path d="M88.7,7.8c-4.5,0-7.9,3.1-7.9,7.6c0,4.5,3.4,7.6,7.9,7.6c2.6,0,4.8-1,6.2-2.8c0.3-1.4,0.6-2.7,1-3.9
	c0.2-0.6,0.4-1.3,0.6-1.9C96,10.5,92.9,7.8,88.7,7.8z M88.7,19.7c-2.4,0-4-1.9-4-4.3c0-2.4,1.6-4.3,4-4.3c2.4,0,4,1.9,4,4.3
	C92.7,17.8,91.1,19.7,88.7,19.7z"/>
<path d="M111.8,17.4c1.4-0.5,2.9-1.8,2.9-4.4c0-2.7-1.9-4.9-5.1-4.9h-5.4c-0.4,0.6-0.8,1.2-1.1,1.7l-0.2,0.3l0,0.1
	c-0.2,0.3-0.4,0.7-0.5,1v11.6h3.8v-5h1.9l2.5,5h4.3L111.8,17.4z M109,14.6h-3v-3.3h3c1,0,1.8,0.6,1.8,1.7
	C110.9,13.9,110,14.6,109,14.6z"/>
<path d="M139.9,8.1v5.5h-6.1V8.1H130v14.7h3.8v-5.9h6.1v5.9h3.8V8.1H139.9z"/>
<path d="M158.8,8.1H154l-5.5,14.7h4.1l0.7-2.2h6.1l0.8,2.2h4.1L158.8,8.1z M154.3,17.3l2.1-6l2.1,6H154.3z"/>
<path d="M178.2,8.1v8.6c0,1.7-0.9,3-3,3c-2.1,0-3-1.3-3-3V8.1h-3.9v8.8c0,3.6,2.1,6.2,6.8,6.2c4.7,0,6.8-2.6,6.8-6.2V8.1H178.2z"/>
<path d="M194.2,13.6c-1.6-0.3-2.5-0.6-2.5-1.3c0-0.6,0.5-1.1,1.7-1.1c1.3,0,2.9,0.5,4.1,1.5l2.1-2.7c-1.6-1.4-3.6-2.1-6-2.1
	c-3.8,0-5.9,2.1-5.9,4.6c0,3.5,3.4,4.1,5.8,4.6c1.6,0.3,2.5,0.7,2.5,1.5c0,0.7-0.8,1.3-2.1,1.3c-2,0-3.6-0.9-4.7-1.9l-2,2.8
	c1.5,1.4,3.5,2.3,6.5,2.3c4,0,6.1-2,6.1-4.9C200,14.8,196.6,14.1,194.2,13.6z"/>
<path d="M87.7,44.4C87.7,44.5,87.7,44.5,87.7,44.4c0,0.1,0,0.1,0,0.2c0,0,0,0,0,0c0,0-0.1,0.1-0.1,0.1c-0.1,0-0.2,0.1-0.3,0.1
	c-0.2,0.1-0.3,0.2-0.5,0.2l-1,0.4c-2,0.9-4,1.9-5.6,3.4l0.5,1.2c0.2,0.4,0.3,0.9,0.3,1.4c0.1,0.5,0.1,0.9,0,1.4
	c-0.1,0.9-0.5,1.8-1,2.6c-0.5,0.7-1.2,1.5-1.9,2c-0.3,0.2-0.7,0.3-1,0.3c-1.1,0-2.2-0.8-2.2-1.9c-0.1-0.5-0.1-0.9,0-1.4
	c0.3-2.1,1.4-4,2.9-5.4c0,0,0,0,0.1-0.1c0.1-0.1,0.2-0.2,0.3-0.3c0-0.1-0.1-0.2-0.2-0.3c-0.1-0.1-0.2-0.3-0.3-0.4
	c-0.2-0.2-0.3-0.4-0.5-0.7c0,0,0,0-0.1-0.1c-0.4-0.5-0.7-1-1.1-1.5c-0.4-0.5-0.7-1.1-0.8-1.7c-0.1-0.7-0.1-1.3,0.1-1.9
	c0.5-1.6,1.5-2.8,3.1-3.3c0.3,0,0.5-0.1,0.8-0.1c0.2,0,0.5,0,0.7,0.1c0.2,0.1,0.3,0.2,0.4,0.4c0.1,0.2,0.1,0.3,0.1,0.5
	c-0.1,0.7-0.4,1.2-0.9,1.7c0,0-0.1,0.1-0.1,0.1c-0.1,0.1-0.2,0.2-0.2,0.2L78.7,42c-0.1,0.1-0.2,0.1-0.3,0.2c0,0-0.1,0-0.1,0.1
	c-0.1,0-0.2,0.1-0.3,0.2c0,0-0.1,0-0.2,0.1l0,0c0,0-0.1,0-0.1,0l0,0c-0.1,0-0.1,0-0.1,0c0,0,0,0-0.1,0c0,0,0-0.1,0-0.1
	c0-0.1,0-0.1,0-0.1c0-0.1,0.1-0.2,0.1-0.2c0.1-0.2,0.2-0.4,0.3-0.6c0-0.1,0.1-0.1,0.2-0.2c0.1-0.1,0.2-0.2,0.2-0.4c0,0,0,0,0-0.1
	c0,0,0,0,0,0c0,0-0.1,0-0.1,0.1c-0.1,0.1-0.2,0.1-0.3,0.2c0,0,0,0-0.1,0c-0.5,0.4-0.9,0.8-1,1.4c-0.1,0.3-0.2,0.5-0.2,0.9
	c0,0.3,0,0.6,0.1,0.9c0.3,0.9,0.8,1.6,1.4,2.3l0.6,0.7c0.2,0.2,0.3,0.4,0.5,0.7c0.6-0.4,1.3-0.7,1.9-1.1c1.6-0.9,3.6-1.9,5.3-2.2
	c0,0,0.1,0,0.2,0c0,0,0.1,0,0.1,0c0.1,0,0.2,0,0.3,0c0,0,0.1,0,0.1,0c0,0,0.1,0,0.2,0C87.4,44.4,87.5,44.4,87.7,44.4L87.7,44.4z
	 M76.4,54.7c0,0.1,0,0.2,0,0.3c0,0,0,0,0,0.1c0,0.1,0,0.2,0,0.3c0,0.1,0,0.2,0.1,0.3c0,0.1,0,0.1,0.1,0.2c0,0,0.1,0.1,0.1,0.1
	c0.1,0,0.1,0,0.2,0c0.1,0,0.2-0.1,0.3-0.2c0.1,0,0.3-0.3,0.4-0.3c0.1-0.1,0.1-0.1,0.2-0.2c0.3-0.4,0.7-0.8,0.9-1.3
	c0.1-0.2,0.2-0.5,0.3-0.7c0-0.1,0-0.2,0.1-0.3c0.1-0.4,0.2-0.8,0.2-1.2v0l-0.1-0.5c0-0.2-0.1-0.3-0.1-0.5c-0.1-0.3-0.2-0.6-0.3-0.8
	C77.5,51.2,76.7,53,76.4,54.7z"/>
<path d="M87.3,48.9c-0.3,0.1-0.6,0.1-1,0.1c-0.7,0-1.3-0.6-1.4-1.3c0-0.4,0-0.7,0.2-1c0.2-0.3,0.4-0.5,0.6-0.8
	c1.9-2.1,4.3-3.4,7.2-3.4c0.7,0,1.6,0,2.3,0.3c0.2,0.1,0.3,0.2,0.4,0.3c0.1,0.1,0.1,0.1,0.2,0.2c0.1,0.1,0.2,0.2,0.2,0.3
	c0,0.3-0.2,0.5-0.5,0.5c-0.1,0-0.2,0-0.2,0c0,0,0,0-0.1,0l-0.5-0.1c0,0-0.1,0-0.2,0c0,0,0,0-0.1,0c-0.1,0-0.1,0-0.2,0
	c-0.1,0-0.2,0-0.3,0c-0.3,0-0.6,0-0.9,0c-2.2,0-4.7,1.1-5.9,3c0,0,0,0-0.1,0.1l-0.2,0.3c0,0,0,0,0,0.1c0,0,0,0.1,0,0.1
	c0,0,0.1,0,0.1,0c0,0,0,0,0.1,0h0.1c0.1,0,0.1,0,0.2,0c0,0,0,0,0.1,0c0.7-0.2,1.4-0.7,1.9-1.2c0.1,0,0.1-0.1,0.2-0.1
	c0.1,0,0.1-0.1,0.2-0.1c0.2-0.2,0.4-0.3,0.6-0.5c0,0,0.1,0,0.1-0.1c0.5-0.4,1-0.8,1.6-1c0.1,0,0.2,0,0.3,0c0.1,0,0.1,0,0.2,0
	c0.5,0.1,0.8,0.7,0.9,1.2c0,0,0,0,0,0c0.3,1.2,1,1.8,2.3,1.8c0.7,0,1.5-0.3,2.1-0.6c0.8-0.4,1.6-1,2.3-1.6l0.5-0.4c0,0,0,0,0.1,0
	c0,0,0.1-0.1,0.2-0.1h0c0.1,0,0.1-0.1,0.2-0.1c0,0,0,0,0.1,0c0,0,0.1,0,0.1,0h0c0.1,0,0.2,0.1,0.2,0.2c0,0,0,0.1,0,0.2c0,0,0,0,0,0
	c0,0,0,0,0,0c-0.1,0.1-0.1,0.2-0.2,0.2l-0.2,0.2l0,0c-0.2,0.2-0.5,0.4-0.7,0.6c-0.3,0.2-0.5,0.4-0.8,0.5c-1.1,0.6-2.2,1.2-3.4,1.6
	c-0.6,0.2-1.2,0.3-1.9,0.3c-0.5,0-1.5-0.6-1.7-1c-0.1-0.1-0.2-0.2-0.2-0.3l-0.2-0.2c0,0,0,0,0,0c0,0-0.1-0.1-0.1-0.1
	c-0.1-0.1-0.2-0.2-0.3-0.2c-0.1,0-0.3,0-0.4,0.1c-0.2,0.1-0.3,0.2-0.5,0.3C90,47.8,88.5,48.7,87.3,48.9z"/>
<path d="M122.4,44.7c0,0-0.1,0.1-0.2,0.2c-0.1,0.1-0.2,0.2-0.3,0.3c-2.7,2.7-6.5,4.8-10.3,4.8c-2.7,0-5-0.9-7.2-2.5l-1-0.9
	c-2.1-1.9-3.8-4-5-6.3l-0.5-0.9l-0.4-0.9c-0.2-0.5-0.4-0.9-0.6-1.4c-0.1-0.2-0.1-0.3-0.2-0.5c-0.1-0.3-0.2-0.5-0.3-0.8l-0.3-1.2
	c-0.1-0.2-0.1-0.4-0.2-0.7c0,0,0,0,0-0.1c0-0.1,0-0.2-0.1-0.3l-0.2-1c-0.4-2.5-0.5-5.3-0.3-8.1c0.2-2.6,0.7-5.5,1.5-8
	c1.9-6.8,7.3-16.1,15-16.6c3.6,0,5.6,2.4,6.6,5.7l0.1,0.3l-0.1,0c0.4,1.5,0.7,3.2,0.7,5.2c0.1,1.7,0,3.6-0.2,5.5
	c-1.2,11-6.4,21.6-16.2,27.5c0.8,0.9,1.6,1.7,2.5,2.4l0.1,0.1c1.9,1.4,4.1,2.4,6.5,2.4c3,0,5.9-1.7,8.2-3.5l0.9-0.8
	c0.3-0.2,0.5-0.4,0.7-0.5c0.2,0,0.3-0.1,0.4-0.1c0.1,0,0.3,0.1,0.3,0.2C122.5,44.6,122.5,44.7,122.4,44.7z M117,5.8
	c-0.1-0.5-0.3-1.1-0.6-1.6l0-0.1c-0.1-0.2-0.2-0.3-0.2-0.5l0-0.1c-0.1-0.1-0.2-0.2-0.2-0.4c0,0-0.1-0.1-0.1-0.2
	c0-0.1-0.1-0.1-0.1-0.2c0,0,0-0.1-0.1-0.1c0,0,0-0.1-0.1-0.1c0-0.1-0.1-0.1-0.1-0.2c0,0-0.1-0.1-0.1-0.1c-0.1-0.1-0.2-0.2-0.3-0.3
	c0,0-0.1-0.1-0.1-0.1c0,0-0.1-0.1-0.2-0.1l-0.3-0.2c-0.4-0.2-0.8-0.3-1.2-0.4c-0.2,0-0.3,0-0.5-0.1c0,0-0.1,0-0.2,0
	c-0.1,0-0.1,0-0.2,0c0,0-0.1,0-0.1,0c0,0-0.1,0-0.1,0c-0.1,0-0.1,0-0.2,0c-4.1,0.5-7.9,4.5-9.9,7.9l0,0.1l0,0
	c-0.1,0.1-0.1,0.3-0.2,0.4c-0.6,1-1.1,2.1-1.6,3.2c0,0,0,0,0,0c-0.1,0.1-0.1,0.3-0.2,0.4c-0.5,1.3-1.1,2.7-1.5,4.3l-0.3,1.1
	c-0.1,0.2-0.1,0.4-0.2,0.7c0,0,0,0,0,0c0,0.1,0,0.3-0.1,0.4c-0.1,0.3-0.1,0.6-0.2,0.9L97.7,21c-0.4,1.6-0.5,3.9-0.6,5.5
	c0,0.6,0,1.3,0,1.9v0.4c0,0.2,0,0.3,0,0.5c0.2,2.1,0.3,4.1,0.9,6.2c0.1,0.2,0.2,0.5,0.2,0.7c0,0.1,0.1,0.2,0.1,0.3
	c0,0.1,0.1,0.2,0.1,0.3c0.8,2.3,2.1,4.5,3.6,6.4c9.4-5.7,14.4-15.9,15.5-26.6c0.2-1.9,0.3-3.7,0.2-5.4c-0.1-2.1-0.3-3.8-0.8-5.3
	L117,5.8z"/>
<path d="M131.9,44.8c-0.3,0.5-2.7,0.9-3.3,1c-0.4,1.9-2.4,6-4.4,6c-0.1,0-0.2,0-0.3,0c-0.7-0.1-1.2-0.8-1.7-1.9
	c-0.6-1.5-0.7-3.2-0.7-4.8l-0.1,0c-0.2-0.2-0.5-0.4-0.7-0.8c-0.3-0.7-0.2-1.4,0.3-2.4c0.8-1.5,2.6-3.4,4.5-3.4
	c0.5,0,1.1,0.2,1.6,0.5c0.8,0.5,1.3,1.3,1.5,2.2c0.3,1.3,0.3,2.5,0.1,3.7c1.1-0.1,1.9-0.2,2.3-0.3c0.3,0,0.5-0.1,0.6-0.1
	s0.2,0,0.3,0.2C132,44.6,132,44.7,131.9,44.8z M127.5,44.9c0.2-0.7,0.2-1.5,0.2-2.5c0-1-0.3-1.7-0.7-2.1c-0.3-0.3-0.7-0.4-1.2-0.4
	c-0.9,0-1.7,0.5-2.3,1.1c-0.6,0.7-1,1.1-1,1.4c-0.1,0.2-0.2,0.5-0.3,0.7c0.1-0.3,0.2-0.6,0.3-0.8c0.4-0.7,0.9-1,1.5-1
	c0.4,0,0.7,0.2,0.9,0.5l0.1,0.1l-0.1,0c-0.1,0-0.2,0-0.3,0.1c-0.1,0-0.3,0-0.4,0.1c-0.4,0.3-0.7,1.5-0.8,2
	C124.4,44.7,126.3,44.9,127.5,44.9z M123.1,46.6c0,1,0.2,2,0.5,2.9c0.2,0.5,0.5,0.7,0.7,0.8c0.3,0,0.6-0.2,0.9-0.4c1-1,1.6-2.3,2-4
	c-0.4,0.1-0.9,0.1-1.4,0.1c-0.2,0-0.4,0-0.6,0c-0.8,0-1.5-0.2-2-0.4C123.1,45.9,123.1,46.2,123.1,46.6z"/>
<path d="M150,45c-0.2,0.3-1,1-1.4,1.3c-1,0.7-2.6,1.2-3.8,1.2c-1.8,0-2.9-1.3-3.8-2.7c-0.1-0.2-0.2-0.4-0.4-0.6
	c-0.3-0.6-1-1.9-1.7-1.9c-0.9,0-2.2,2.6-2.5,3.3c-0.1,0.3-0.3,0.6-0.4,0.9c-0.1,0.1-0.1,0.2-0.2,0.3c-0.1,0.4-0.3,0.7-0.6,1
	c-0.3,0.3-0.7,0.3-1.1,0.3c-1.1-0.2-1.3-1-1.4-1.9c0-0.1,0-0.2-0.1-0.3c-0.2-1.2-0.3-2.5-0.5-3.7c0,0,0,0,0,0
	c-0.1-0.5-0.2-0.9-0.2-1.3c0-0.1,0-0.2,0.1-0.3c0.1-0.3,0.4-0.5,0.7-0.5c0.4,0,0.7,0.2,0.8,0.5c0.1,0.3,0.2,0.8,0.2,1.3
	c0,0.4,0.1,0.8,0.1,1.2c0,0.5,0.1,0.9,0.2,1.3c0.1,0.4,0.2,0.6,0.4,0.6c0.4,0,0.9-1,1-1.3c0.2-0.3,0.3-0.6,0.5-0.8
	c0.9-1.1,1.8-1.7,2.6-1.7c1.7,0,3.1,2.2,3.8,3.5c0.1,0.2,0.2,0.4,0.4,0.7c0.7,1.1,1.6,1.6,2.7,1.6c1.5,0,2.7-0.8,3.9-1.6
	c0.3-0.3,0.6-0.4,0.7-0.4C150.2,44.7,150.1,44.8,150,45z"/>
</svg>
