<?xml version="1.0" encoding="utf-8"?>
<!-- Generator: Adobe Illustrator 27.8.1, SVG Export Plug-In . SVG Version: 6.00 Build 0)  -->
<svg version="1.1" id="Layer_1" xmlns="http://www.w3.org/2000/svg" xmlns:xlink="http://www.w3.org/1999/xlink" x="0px" y="0px"
	 viewBox="0 0 780 260" style="enable-background:new 0 0 780 260;" xml:space="preserve">
<style type="text/css">
	.st0{display:none;}
</style>
<g>
	<g>
		<path d="M337.7,190.7c-2.6,1.1-21.2,8.7-23.6,11c0,0,4.5,6.8,4.5,11c0,13.8-7.4,20.9-17.5,20.9c-5.4,0-7.5-4.1-6.9-12
			c0.9-10,6.4-15.4,13.3-20.6c-9.1-10-11.4-15.9-11-20.2c0-10.9,9.4-15.6,14.7-15.6c5.5,0,8.4,4.8,3,9.1c-1.7,1.4-5.3,0.7-4.4-0.4
			c1.1-1.3,0.7-4.6-3.4-1.5c-2.2,1.7-3.5,5.7-3.5,9c0,9.3,6.3,13.9,8.8,17.1C339.5,184.8,341.4,189.1,337.7,190.7z M301,228
			c6.8,0,9.6-6,10.4-14.3c0.3-3.5-1.6-8.9-2-9.4C298,210.4,297,228,301,228z"/>
		<path d="M337.2,202.5c-4.3,0-5.1-3-5.1-4.7c0-17.2,17.4-22.9,29.9-21.2c4,0.5,6,1,5.3,3.1c-0.7,2.2-3.7,1.8-7.9,1.5
			c-16.1-1-21.4,9.3-21.4,13.7c0,1.8,1.8,2.5,3.4,2.5c1.9,0,8.2-1.2,11.8-8.6c0.9-1.9,3.5-3.8,7.9-2.6c2.5,0.7,2.8,11.1,8,11.1
			c10.4,0,21.9-13.8,23.3-14.1c1.3-0.2,3.4,2.2,2.6,2.9c-10.4,9-30.2,24.5-36.5,5.8C358.6,192,349,202.5,337.2,202.5z"/>
		<path d="M424,207.1c-68.5,0-69.6-187.1,11-187.1c33.3,0,76.9,49.9-38.8,165.7c8.2,14.5,20.9,18.2,29.6,18.2
			c22.5,0,25.6-20.9,27.1-21.4c3.3-1.1,3.4,1.9,3.4,3.8C456.4,194.4,441.3,207.1,424,207.1z M432.4,25.2c-36.1,0-74,78.1-37.8,156.3
			C495.8,76.2,468.5,25.2,432.4,25.2z"/>
		<path d="M496.5,187.4c-1.1,1.8-0.9,2.8-15.6,4.6c-1.4,6.9-8.7,21.7-15.9,21.7c-3.3,0-5.4-2.9-7.2-6.9c-2.2-5.4-2-17.1-2-17.1
			s-2.7-1.6-3.4-3.1c-1.1-2.5-0.7-5.1,1.1-8.7c2.9-5.4,9.4-12.3,16.2-12.3c7,0,10.5,6.5,11.2,9.7c1.1,4.7,1.1,9,0.4,13.4
			c11.8-0.6,13.8-2.5,14.2-2.5S496.8,187,496.5,187.4z M476.9,188.8c0.7-2.5,0.7-5.4,0.7-9s-0.6-9-6.8-9c-3.2,0-9.1,0-13.4,12.3
			c3-6.3,5-6.9,7.2-6.9c1.2,0,2.3,0.5,2,0.8c-0.9,0.9-3.1,0.8-4.5,9.1C465.7,187.9,472.6,188.8,476.9,188.8z M461,194.8
			c0,3.6,1.3,9.5,1.8,10.5c0.5,1,2.1,5.4,5.7,1.5c1.5-1.6,5.8-8.3,7.2-14.4c-5.9,0.3-10.3,0.1-14.5-1C461,192.3,461,193.3,461,194.8
			z"/>
		<path d="M553,193.8c-3.6,2.5-9.4,4.3-13.7,4.3c-9.1,0-13.5-9-15.1-11.9c-1.6-2.9-3.6-6.9-6.1-6.9c-3.2,0-7.9,9.4-9,11.9
			c-1,2.3-4.4,9.3-8.3,9c-5.9,0-8-24.6-8-26.1c0-2.4,1.8-2.9,2.9-2.9c1.4,0,2.5,0.7,2.9,1.8s1.6,17.7,3.4,17.7
			c1.4,0,6.2-15.5,14.6-15.5c10.5,0,10.8,20.9,24.8,20.9c5.4,0,9.7-2.9,14.1-5.8c0.5-0.3,1.1-0.2,1.1,0.3
			C556.6,191,554.5,192.7,553,193.8z"/>
	</g>
	<g>
		<path d="M36.8,91.3c3.8,3.8,9.6,7,16.8,7c4.7,0,7.5-2,7.5-4.5c0-3-3.4-4.2-9-5.4c-8.7-1.7-20.9-3.9-20.9-16.4
			c0-8.8,7.5-16.5,21-16.5c8.5,0,15.8,2.5,21.4,7.3l-7.4,9.7c-4.4-3.6-10.2-5.5-14.9-5.5c-4.5,0-6.2,1.8-6.2,4.1
			c0,2.8,3.2,3.7,9.1,4.8c8.7,1.8,20.7,4.3,20.7,16.3c0,10.6-7.8,17.6-22,17.6c-10.7,0-18.1-3.3-23.4-8.4L36.8,91.3z"/>
		<path d="M92.4,82.6c0-16.3,12.3-27.3,28.1-27.3c13.1,0,19.9,7.2,23.4,14.1l-11.7,5.5c-1.7-4.2-6.2-7.7-11.7-7.7
			c-8.2,0-14.3,6.6-14.3,15.2c0,8.6,6.1,15.2,14.3,15.2c5.5,0,10-3.5,11.7-7.7l11.7,5.5c-3.4,6.8-10.3,14.1-23.4,14.1
			C104.7,109.9,92.4,98.8,92.4,82.6z"/>
		<path d="M163.6,109V56.3h13.6V109H163.6z"/>
		<path d="M203.9,91.3c3.8,3.8,9.6,7,16.8,7c4.7,0,7.5-2,7.5-4.5c0-3-3.4-4.2-9-5.4c-8.7-1.7-20.9-3.9-20.9-16.4
			c0-8.8,7.5-16.5,21-16.5c8.5,0,15.8,2.5,21.4,7.3l-7.4,9.7c-4.4-3.6-10.2-5.5-14.9-5.5c-4.5,0-6.2,1.8-6.2,4.1
			c0,2.8,3.2,3.7,9.1,4.8c8.7,1.8,20.7,4.3,20.7,16.3c0,10.6-7.8,17.6-22,17.6c-10.7,0-18.1-3.3-23.4-8.4L203.9,91.3z"/>
		<path d="M265.6,91.3c3.8,3.8,9.6,7,16.8,7c4.7,0,7.5-2,7.5-4.5c0-3-3.4-4.2-9-5.4C272.2,86.7,260,84.5,260,72
			c0-8.8,7.5-16.5,21-16.5c8.5,0,15.8,2.5,21.4,7.3l-7.4,9.7c-4.4-3.6-10.2-5.5-14.9-5.5c-4.5,0-6.2,1.8-6.2,4.1
			c0,2.8,3.2,3.7,9.1,4.8c8.7,1.8,20.7,4.3,20.7,16.3c0,10.6-7.8,17.6-22,17.6c-10.7,0-18.1-3.3-23.4-8.4L265.6,91.3z"/>
		<path class="st0" d="M349.4,55.4c16.1,0,28.1,11.2,28.1,27.3c0,16-12,27.3-28.1,27.3s-28.2-11.2-28.2-27.3
			C321.2,66.6,333.3,55.4,349.4,55.4z M349.4,67.4c-8.8,0-14.4,6.6-14.4,15.2c0,8.5,5.6,15.2,14.4,15.2c8.7,0,14.3-6.7,14.3-15.2
			C363.7,74,358.1,67.4,349.4,67.4z"/>
		<path d="M349.4,55.4c-16.1,0-28.2,11.2-28.2,27.3c0,16,12.1,27.2,28.2,27.2c8.5,0,15.9-3.1,20.9-8.4c0.9-10.2,2.8-20,5.4-29
			C371.8,62,361.8,55.4,349.4,55.4z M349.4,97.9c-8.8,0-14.4-6.7-14.4-15.2c0-8.6,5.6-15.2,14.4-15.2c8.7,0,14.3,6.6,14.3,15.2
			C363.7,91.2,358.1,97.9,349.4,97.9z"/>
		<path d="M427.6,109l-8.8-17.9h-7V109h-13.6V56.3h26.4c11.7,0,18.3,7.7,18.3,17.5c0,9.2-5.6,14.1-10.5,15.8l10.7,19.4H427.6z
			 M422.5,67.7h-10.7v11.8h10.7c3.6,0,6.6-2.3,6.6-5.9S426.1,67.7,422.5,67.7z"/>
		<path d="M533.8,109V87.8h-21.9V109h-13.6V56.3h13.6v19.7h21.9V56.3h13.6V109H533.8z"/>
		<path d="M607.1,109l-2.7-8h-21.9l-2.7,8h-14.8l19.8-52.7H602l19.9,52.7H607.1z M593.4,68.1l-7.3,21.4h14.8L593.4,68.1z"/>
		<path d="M636.6,56.3h13.8v30.9c0,6.2,3.3,10.7,10.7,10.7c7.3,0,10.6-4.5,10.6-10.7V56.3h13.8v31.3c0,13.1-7.5,22.4-24.4,22.4
			c-16.9,0-24.5-9.3-24.5-22.3V56.3z"/>
		<path d="M712.2,91.3c3.8,3.8,9.6,7,16.8,7c4.7,0,7.5-2,7.5-4.5c0-3-3.4-4.2-9-5.4c-8.7-1.7-20.9-3.9-20.9-16.4
			c0-8.8,7.5-16.5,21-16.5c8.5,0,15.8,2.5,21.4,7.3l-7.4,9.7c-4.4-3.6-10.2-5.5-14.9-5.5c-4.5,0-6.2,1.8-6.2,4.1
			c0,2.8,3.2,3.7,9.1,4.8c8.7,1.8,20.7,4.3,20.7,16.3c0,10.6-7.8,17.6-22,17.6c-10.7,0-18.1-3.3-23.4-8.4L712.2,91.3z"/>
	</g>
</g>
</svg>
