<?xml version="1.0" encoding="utf-8"?>
<!-- Generator: Adobe Illustrator 27.8.1, SVG Export Plug-In . SVG Version: 6.00 Build 0)  -->
<svg version="1.1" id="Layer_1" xmlns="http://www.w3.org/2000/svg" xmlns:xlink="http://www.w3.org/1999/xlink" x="0px" y="0px"
	 viewBox="0 0 721.4 209" style="enable-background:new 0 0 721.4 209;" xml:space="preserve">
<style type="text/css">
	.st0{fill:#FFFFFF;}
</style>
<g>
	<path class="st0" d="M25.3,49.8c-5.8-1.1-9-2.2-9-4.7c0-2.2,1.8-4,6.1-4c4.7,0,10.5,1.8,14.8,5.4l7.6-9.7c-5.8-5.1-13-7.6-21.7-7.6
		c-13.7,0-21.3,7.6-21.3,16.6c0,12.6,12.3,14.8,20.9,16.6c5.8,1.1,9,2.5,9,5.4c0,2.5-2.9,4.7-7.6,4.7c-7.2,0-13-3.2-17-6.9L0,75.8
		c5.8,4.7,13,7.9,23.8,7.9c14.4,0,22-7.2,22-17.7C46.2,54.1,33.9,51.6,25.3,49.8z"/>
	<path class="st0" d="M91.7,71.8c-8.3,0-14.4-6.9-14.4-15.5s6.1-15.5,14.4-15.5c5.4,0,10.1,3.6,11.9,7.6l11.9-5.4
		C111.9,36.1,105,28.9,92,28.9c-15.9,0-28.1,11.2-28.1,27.4S76.1,83.7,92,83.7c13.4,0,20.2-7.6,23.5-14.4l-11.9-5.4
		C101.4,68.2,97.1,71.8,91.7,71.8z"/>
	<path class="st0" d="M134.6,30v53h13.7V30H134.6z"/>
	<path class="st0" d="M192.3,49.8c-5.8-1.1-9-2.2-9-4.7c0-2.2,1.8-4,6.1-4c4.7,0,10.5,1.8,14.8,5.4l7.6-9.7
		c-5.8-5.1-13-7.6-21.7-7.6c-13.7,0-21.3,7.6-21.3,16.6c0,12.6,12.3,14.8,20.9,16.6c5.8,1.1,9,2.5,9,5.4c0,2.5-2.9,4.7-7.6,4.7
		c-7.2,0-13-3.2-17-6.9l-7.2,10.1c5.4,5.1,12.6,8.3,23.5,8.3c14.4,0,22-7.2,22-17.7C213.3,54.1,201,51.6,192.3,49.8z"/>
	<path class="st0" d="M254.1,49.8c-5.8-1.1-9-2.2-9-4.7c0-2.2,1.8-4,6.1-4c4.7,0,10.5,1.8,14.8,5.4l7.6-9.7
		c-5.8-5.1-13-7.6-21.7-7.6c-13.7,0-21.3,7.6-21.3,16.6c0,12.6,12.3,14.8,20.9,16.6c5.8,1.1,9,2.5,9,5.4c0,2.5-2.9,4.7-7.6,4.7
		c-7.2,0-13-3.2-17-6.9l-7.2,10.1c5.8,4.7,13.4,7.9,24.2,7.9c14.1,0,22-7.2,22-17.7C275,54.1,262.7,51.6,254.1,49.8z"/>
	<path class="st0" d="M320.5,28.9c-16.2,0-28.5,11.2-28.5,27.4s12.3,27.4,28.5,27.4c9.4,0,17.3-3.6,22.4-10.1
		c1.1-5.1,2.2-9.7,3.6-14.1c0.7-2.2,1.4-4.7,2.2-6.9C346.8,38.6,335.6,28.9,320.5,28.9z M320.5,71.8c-8.7,0-14.4-6.9-14.4-15.5
		s5.8-15.5,14.4-15.5c8.7,0,14.4,6.9,14.4,15.5S329.1,71.8,320.5,71.8z"/>
	<path class="st0" d="M403.8,63.5c5.1-1.8,10.5-6.5,10.5-15.9c0-9.7-6.9-17.7-18.4-17.7h-19.5c-1.4,2.2-2.9,4.3-4,6.1l-0.7,1.1v0.4
		c-0.7,1.1-1.4,2.5-1.8,3.6V83h13.7V65h6.9l9,18H415L403.8,63.5z M393.7,53.4h-10.8V41.5h10.8c3.6,0,6.5,2.2,6.5,6.1
		C400.6,50.9,397.3,53.4,393.7,53.4z"/>
	<path class="st0" d="M505.2,30v19.8h-22V30h-13.7v53h13.7V61.7h22V83h13.7V30H505.2z"/>
	<path class="st0" d="M573.4,30h-17.3l-19.8,53h14.8l2.5-7.9h22l2.9,7.9h14.8L573.4,30z M557.2,63.2l7.6-21.7l7.6,21.7H557.2z"/>
	<path class="st0" d="M643.5,30v31c0,6.1-3.2,10.8-10.8,10.8s-10.8-4.7-10.8-10.8V30h-14.1v31.8c0,13,7.6,22.4,24.5,22.4
		c17,0,24.5-9.4,24.5-22.4V30H643.5z"/>
	<path class="st0" d="M701.2,49.8c-5.8-1.1-9-2.2-9-4.7c0-2.2,1.8-4,6.1-4c4.7,0,10.5,1.8,14.8,5.4l7.6-9.7
		c-5.8-5.1-13-7.6-21.7-7.6c-13.7,0-21.3,7.6-21.3,16.6c0,12.6,12.3,14.8,20.9,16.6c5.8,1.1,9,2.5,9,5.4c0,2.5-2.9,4.7-7.6,4.7
		c-7.2,0-13-3.2-17-6.9l-7.2,10.1c5.4,5.1,12.6,8.3,23.5,8.3c14.4,0,22-7.2,22-17.7C722.1,54.1,709.9,51.6,701.2,49.8z"/>
	<path class="st0" d="M316.9,161C316.9,161.3,316.9,161.3,316.9,161c0,0.4,0,0.4,0,0.7l0,0l-0.4,0.4c-0.4,0-0.7,0.4-1.1,0.4
		c-0.7,0.4-1.1,0.7-1.8,0.7l-3.6,1.4c-7.2,3.2-14.4,6.9-20.2,12.3l1.8,4.3c0.7,1.4,1.1,3.2,1.1,5.1c0.4,1.8,0.4,3.2,0,5.1
		c-0.4,3.2-1.8,6.5-3.6,9.4c-1.8,2.5-4.3,5.4-6.9,7.2c-1.1,0.7-2.5,1.1-3.6,1.1c-4,0-7.9-2.9-7.9-6.9c-0.4-1.8-0.4-3.2,0-5.1
		c1.1-7.6,5.1-14.4,10.5-19.5c0,0,0,0,0.4-0.4s0.7-0.7,1.1-1.1c0-0.4-0.4-0.7-0.7-1.1c-0.4-0.4-0.7-1.1-1.1-1.4
		c-0.7-0.7-1.1-1.4-1.8-2.5c0,0,0,0-0.4-0.4c-1.4-1.8-2.5-3.6-4-5.4c-1.4-1.8-2.5-4-2.9-6.1c-0.4-2.5-0.4-4.7,0.4-6.9
		c1.8-5.8,5.4-10.1,11.2-11.9c1.1,0,1.8-0.4,2.9-0.4c0.7,0,1.8,0,2.5,0.4s1.1,0.7,1.4,1.4s0.4,1.1,0.4,1.8c-0.4,2.5-1.4,4.3-3.2,6.1
		l-0.4,0.4c-0.4,0.4-0.7,0.7-0.7,0.7l-1.8,1.4c-0.4,0.4-0.7,0.4-1.1,0.7c0,0-0.4,0-0.4,0.4c-0.4,0-0.7,0.4-1.1,0.7
		c0,0-0.4,0-0.7,0.4l0,0h-0.4l0,0c-0.4,0-0.4,0-0.4,0s0,0-0.4,0V154c0-0.4,0-0.4,0-0.4c0-0.4,0.4-0.7,0.4-0.7
		c0.4-0.7,0.7-1.4,1.1-2.2c0-0.4,0.4-0.4,0.7-0.7c0.4-0.4,0.7-0.7,0.7-1.4c0,0,0,0,0-0.4l0,0c0,0-0.4,0-0.4,0.4
		c-0.4,0.4-0.7,0.4-1.1,0.7c0,0,0,0-0.4,0c-1.8,1.4-3.2,2.9-3.6,5.1c-0.4,1.1-0.7,1.8-0.7,3.2c0,1.1,0,2.2,0.4,3.2
		c1.1,3.2,2.9,5.8,5.1,8.3l2.2,2.5c0.7,0.7,1.1,1.4,1.8,2.5c2.2-1.4,4.7-2.5,6.9-4c5.8-3.2,13-6.9,19.1-7.9c0,0,0.4,0,0.7,0h0.4
		c0.4,0,0.7,0,1.1,0h0.4c0,0,0.4,0,0.7,0C315.8,161,316.1,161,316.9,161L316.9,161z M276.1,198.1c0,0.4,0,0.7,0,1.1c0,0,0,0,0,0.4
		s0,0.7,0,1.1s0,0.7,0.4,1.1c0,0.4,0,0.4,0.4,0.7l0.4,0.4c0.4,0,0.4,0,0.7,0s0.7-0.4,1.1-0.7c0.4,0,1.1-1.1,1.4-1.1
		c0.4-0.4,0.4-0.4,0.7-0.7c1.1-1.4,2.5-2.9,3.2-4.7c0.4-0.7,0.7-1.8,1.1-2.5c0-0.4,0-0.7,0.4-1.1c0.4-1.4,0.7-2.9,0.7-4.3l0,0
		l-0.4-1.8c0-0.7-0.4-1.1-0.4-1.8c-0.4-1.1-0.7-2.2-1.1-2.9C280,185.5,277.2,192,276.1,198.1z"/>
	<path class="st0" d="M315.4,177.2c-1.1,0.4-2.2,0.4-3.6,0.4c-2.5,0-4.7-2.2-5.1-4.7c0-1.4,0-2.5,0.7-3.6s1.4-1.8,2.2-2.9
		c6.9-7.6,15.5-12.3,26-12.3c2.5,0,5.8,0,8.3,1.1c0.7,0.4,1.1,0.7,1.4,1.1c0.4,0.4,0.4,0.4,0.7,0.7c0.4,0.4,0.7,0.7,0.7,1.1
		c0,1.1-0.7,1.8-1.8,1.8c-0.4,0-0.7,0-0.7,0s0,0-0.4,0l-1.8-0.4c0,0-0.4,0-0.7,0c0,0,0,0-0.4,0s-0.4,0-0.7,0c-0.4,0-0.7,0-1.1,0
		c-1.1,0-2.2,0-3.2,0c-7.9,0-17,4-21.3,10.8c0,0,0,0-0.4,0.4l-0.7,1.1c0,0,0,0,0,0.4v0.4h0.4c0,0,0,0,0.4,0h0.4c0.4,0,0.4,0,0.7,0
		c0,0,0,0,0.4,0c2.5-0.7,5.1-2.5,6.9-4.3c0.4,0,0.4-0.4,0.7-0.4s0.4-0.4,0.7-0.4c0.7-0.7,1.4-1.1,2.2-1.8c0,0,0.4,0,0.4-0.4
		c1.8-1.4,3.6-2.9,5.8-3.6c0.4,0,0.7,0,1.1,0s0.4,0,0.7,0c1.8,0.4,2.9,2.5,3.2,4.3l0,0c1.1,4.3,3.6,6.5,8.3,6.5
		c2.5,0,5.4-1.1,7.6-2.2c2.9-1.4,5.8-3.6,8.3-5.8l1.8-1.4c0,0,0,0,0.4,0c0,0,0.4-0.4,0.7-0.4l0,0c0.4,0,0.4-0.4,0.7-0.4
		c0,0,0,0,0.4,0h0.4l0,0c0.4,0,0.7,0.4,0.7,0.7c0,0,0,0.4,0,0.7l0,0l0,0c-0.4,0.4-0.4,0.7-0.7,0.7l-0.7,0.7l0,0
		c-0.7,0.7-1.8,1.4-2.5,2.2c-1.1,0.7-1.8,1.4-2.9,1.8c-4,2.2-7.9,4.3-12.3,5.8c-2.2,0.7-4.3,1.1-6.9,1.1c-1.8,0-5.4-2.2-6.1-3.6
		c-0.4-0.4-0.7-0.7-0.7-1.1l-0.7-0.7l0,0l-0.4-0.4c-0.4-0.4-0.7-0.7-1.1-0.7s-1.1,0-1.4,0.4c-0.7,0.4-1.1,0.7-1.8,1.1
		C325.2,173.2,319.7,176.5,315.4,177.2z"/>
	<path class="st0" d="M442.1,162c0,0-0.4,0.4-0.7,0.7s-0.7,0.7-1.1,1.1c-9.7,9.7-23.5,17.3-37.2,17.3c-9.7,0-18-3.2-26-9l-3.6-3.2
		c-7.6-6.9-13.7-14.4-18-22.7l-1.8-3.2l-1.4-3.2c-0.7-1.8-1.4-3.2-2.2-5.1c-0.4-0.7-0.4-1.1-0.7-1.8c-0.4-1.1-0.7-1.8-1.1-2.9
		l-1.1-4.3c-0.4-0.7-0.4-1.4-0.7-2.5c0,0,0,0,0-0.4s0-0.7-0.4-1.1l-0.7-3.6c-1.4-9-1.8-19.1-1.1-29.2c0.7-9.4,2.5-19.8,5.4-28.9
		c6.9-24.6,26.3-58.2,54.1-60c13,0,20.2,8.7,23.8,20.6l0.4,1.1h-0.4c1.4,5.4,2.5,11.5,2.5,18.8c0.4,6.1,0,13-0.7,19.8
		c-4.3,39.7-23.1,78-58.5,99.2c2.9,3.2,5.8,6.1,9,8.7l0.4,0.4c6.9,5.1,14.8,8.7,23.5,8.7c10.8,0,21.3-6.1,29.6-12.6l3.2-2.9
		c1.1-0.7,1.8-1.4,2.5-1.8c0.7,0,1.1-0.4,1.4-0.4s1.1,0.4,1.1,0.7C442.4,161.7,442.4,162,442.1,162z M422.6,21.7
		c-0.4-1.8-1.1-4-2.2-5.8v-0.4c-0.4-0.7-0.7-1.1-0.7-1.8v-0.4c-0.4-0.4-0.7-0.7-0.7-1.4c0,0-0.4-0.4-0.4-0.7c0-0.4-0.4-0.4-0.4-0.7
		c0,0,0-0.4-0.4-0.4c0,0,0-0.4-0.4-0.4c0-0.4-0.4-0.4-0.4-0.7l-0.4-0.4c-0.4-0.4-0.7-0.7-1.1-1.1l-0.4-0.4c0,0-0.4-0.4-0.7-0.4
		L413.3,6c-1.4-0.7-2.9-1.1-4.3-1.4c-0.7,0-1.1,0-1.8-0.4c0,0-0.4,0-0.7,0s-0.4,0-0.7,0h-0.4H405c-0.4,0-0.4,0-0.7,0
		c-14.8,1.8-28.5,16.2-35.7,28.5v0.4l0,0c-0.4,0.4-0.4,1.1-0.7,1.4c-2.2,3.6-4,7.6-5.8,11.5l0,0c-0.4,0.4-0.4,1.1-0.7,1.4
		c-1.8,4.7-4,9.7-5.4,15.5l-1.1,4c-0.4,0.7-0.4,1.4-0.7,2.5l0,0c0,0.4,0,1.1-0.4,1.4c-0.4,1.1-0.4,2.2-0.7,3.2l-0.4,2.2
		c-1.4,5.8-1.8,14.1-2.2,19.8c0,2.2,0,4.7,0,6.9v1.4c0,0.7,0,1.1,0,1.8c0.7,7.6,1.1,14.8,3.2,22.4c0.4,0.7,0.7,1.8,0.7,2.5
		c0,0.4,0.4,0.7,0.4,1.1c0,0.4,0.4,0.7,0.4,1.1c2.9,8.3,7.6,16.2,13,23.1c33.9-20.6,52-57.4,55.9-96c0.7-6.9,1.1-13.4,0.7-19.5
		c-0.4-7.6-1.1-13.7-2.9-19.1L422.6,21.7z"/>
	<path class="st0" d="M476.4,162.4c-1.1,1.8-9.7,3.2-11.9,3.6c-1.4,6.9-8.7,21.7-15.9,21.7c-0.4,0-0.7,0-1.1,0
		c-2.5-0.4-4.3-2.9-6.1-6.9c-2.2-5.4-2.5-11.5-2.5-17.3h-0.4c-0.7-0.7-1.8-1.4-2.5-2.9c-1.1-2.5-0.7-5.1,1.1-8.7
		c2.9-5.4,9.4-12.3,16.2-12.3c1.8,0,4,0.7,5.8,1.8c2.9,1.8,4.7,4.7,5.4,7.9c1.1,4.7,1.1,9,0.4,13.4c4-0.4,6.9-0.7,8.3-1.1
		c1.1,0,1.8-0.4,2.2-0.4s0.7,0,1.1,0.7C476.7,161.7,476.7,162,476.4,162.4z M460.5,162.8c0.7-2.5,0.7-5.4,0.7-9s-1.1-6.1-2.5-7.6
		c-1.1-1.1-2.5-1.4-4.3-1.4c-3.2,0-6.1,1.8-8.3,4c-2.2,2.5-3.6,4-3.6,5.1c-0.4,0.7-0.7,1.8-1.1,2.5c0.4-1.1,0.7-2.2,1.1-2.9
		c1.4-2.5,3.2-3.6,5.4-3.6c1.4,0,2.5,0.7,3.2,1.8l0.4,0.4h-0.4c-0.4,0-0.7,0-1.1,0.4c-0.4,0-1.1,0-1.4,0.4c-1.4,1.1-2.5,5.4-2.9,7.2
		C449.3,162,456.2,162.8,460.5,162.8z M444.6,168.9c0,3.6,0.7,7.2,1.8,10.5c0.7,1.8,1.8,2.5,2.5,2.9c1.1,0,2.2-0.7,3.2-1.4
		c3.6-3.6,5.8-8.3,7.2-14.4c-1.4,0.4-3.2,0.4-5.1,0.4c-0.7,0-1.4,0-2.2,0c-2.9,0-5.4-0.7-7.2-1.4
		C444.6,166.4,444.6,167.4,444.6,168.9z"/>
	<path class="st0" d="M541.7,163.1c-0.7,1.1-3.6,3.6-5.1,4.7c-3.6,2.5-9.4,4.3-13.7,4.3c-6.5,0-10.5-4.7-13.7-9.7
		c-0.4-0.7-0.7-1.4-1.4-2.2c-1.1-2.2-3.6-6.9-6.1-6.9c-3.2,0-7.9,9.4-9,11.9c-0.4,1.1-1.1,2.2-1.4,3.2c-0.4,0.4-0.4,0.7-0.7,1.1
		c-0.4,1.4-1.1,2.5-2.2,3.6s-2.5,1.1-4,1.1c-4-0.7-4.7-3.6-5.1-6.9c0-0.4,0-0.7-0.4-1.1c-0.7-4.3-1.1-9-1.8-13.4l0,0
		c-0.4-1.8-0.7-3.2-0.7-4.7c0-0.4,0-0.7,0.4-1.1c0.4-1.1,1.4-1.8,2.5-1.8c1.4,0,2.5,0.7,2.9,1.8s0.7,2.9,0.7,4.7
		c0,1.4,0.4,2.9,0.4,4.3c0,1.8,0.4,3.2,0.7,4.7c0.4,1.4,0.7,2.2,1.4,2.2c1.4,0,3.2-3.6,3.6-4.7c0.7-1.1,1.1-2.2,1.8-2.9
		c3.2-4,6.5-6.1,9.4-6.1c6.1,0,11.2,7.9,13.7,12.6c0.4,0.7,0.7,1.4,1.4,2.5c2.5,4,5.8,5.8,9.7,5.8c5.4,0,9.7-2.9,14.1-5.8
		C540.2,163.5,541.3,163.1,541.7,163.1C542.4,162,542,162.4,541.7,163.1z"/>
</g>
</svg>
